<?xml version="1.0" standalone="no"?>
<!DOCTYPE svg PUBLIC "-//W3C//DTD SVG 20010904//EN"
 "http://www.w3.org/TR/2001/REC-SVG-20010904/DTD/svg10.dtd">
<svg version="1.0" xmlns="http://www.w3.org/2000/svg"
 width="600.000000pt" height="600.000000pt" viewBox="0 0 600.000000 600.000000"
 preserveAspectRatio="xMidYMid meet">
<metadata>
Created by potrace 1.14, written by Peter Selinger 2001-2017
</metadata>
<g transform="translate(0.000000,600.000000) scale(0.100000,-0.100000)"
fill="#000000" stroke="none">
<path d="M3147 4327 c-35 -43 -34 -118 1 -150 16 -14 17 -10 18 79 0 52 0 94
0 94 -1 0 -9 -10 -19 -23z"/>
<path d="M2526 4299 c-22 -66 -25 -98 -11 -156 6 -26 50 -79 77 -94 18 -10 19
-9 8 11 -23 44 -51 136 -57 190 -6 60 -10 71 -17 49z"/>
<path d="M2940 4234 c-134 -44 -227 -126 -266 -236 -17 -48 -19 -146 -5 -195
5 -18 7 -33 5 -33 -9 0 -42 36 -67 73 l-25 37 -17 -43 c-37 -97 -34 -210 6
-289 11 -22 40 -59 64 -83 l44 -42 -44 8 c-50 9 -78 23 -117 58 -27 23 -28 24
-28 5 0 -31 29 -123 55 -174 33 -65 96 -132 146 -156 24 -11 55 -26 69 -33 21
-9 14 -11 -48 -7 -72 3 -73 3 -55 -17 27 -30 91 -69 161 -98 76 -32 190 -38
267 -15 27 9 51 14 52 12 4 -4 -50 -144 -71 -185 -34 -64 -104 -110 -181 -119
-54 -6 -55 -9 -9 -28 51 -22 124 -19 182 6 l47 20 -25 -22 c-40 -33 -141 -77
-216 -93 -65 -14 -177 -14 -219 0 -36 12 58 -63 114 -90 137 -68 292 -63 446
11 l50 25 -48 -45 c-27 -26 -43 -46 -37 -46 7 0 44 17 84 37 194 101 320 317
325 561 4 185 18 298 42 345 6 12 24 34 40 49 16 15 29 36 29 48 l0 21 -29
-21 c-37 -26 -45 -13 -27 39 16 46 13 48 -29 23 -17 -11 -47 -22 -68 -26 -21
-4 -53 -16 -73 -28 -43 -25 -91 -30 -126 -12 -30 16 -36 7 -18 -27 13 -23 1
-25 -26 -4 -29 22 -36 18 -30 -17 3 -20 16 -42 33 -55 23 -19 26 -26 17 -40
-22 -35 -59 -39 -115 -13 -99 47 -175 147 -194 256 -10 61 -6 193 10 273 10
54 47 176 61 203 8 16 13 32 11 35 -9 8 -87 -37 -116 -67 -15 -17 -31 -30 -34
-30 -10 0 10 161 27 210 14 41 11 45 -24 34z m-82 -270 c1 -25 9 -61 17 -80
17 -40 5 -45 -24 -8 -23 29 -28 83 -11 115 6 10 12 19 13 19 1 0 3 -21 5 -46z
m-146 -432 c-22 -6 -59 25 -71 59 l-11 32 48 -44 c27 -26 42 -45 34 -47z m818
-72 c0 -5 -9 -14 -20 -20 -22 -12 -27 -1 -8 18 14 14 28 16 28 2z m-560 -110
l45 -1 -28 -15 c-23 -12 -35 -13 -62 -4 -41 13 -61 37 -24 27 13 -4 44 -7 69
-7z m-255 -92 c16 -3 14 -5 -8 -10 -19 -4 -35 0 -50 13 l-22 19 30 -10 c17 -5
39 -10 50 -12z m275 -203 c-7 -9 -28 -15 -49 -14 l-36 1 40 13 c54 17 60 18
45 0z m314 -119 c-7 -40 -21 -63 -50 -82 -37 -25 -39 -11 -5 36 16 22 33 55
36 72 9 40 27 16 19 -26z m-46 -301 c-12 -13 -34 -26 -48 -30 -21 -7 -18 -1
20 36 30 29 46 39 48 30 2 -7 -7 -24 -20 -36z m-263 -105 c-19 -21 -65 -28
-65 -10 0 6 10 10 23 10 12 0 29 5 37 10 23 15 25 12 5 -10z"/>
<path d="M3188 4089 c-36 -36 -75 -88 -89 -119 -82 -171 -80 -387 3 -507 28
-41 120 -123 138 -123 5 0 16 -3 26 -7 15 -6 15 -2 -5 25 -68 97 -96 246 -67
361 15 61 73 189 116 259 26 42 10 41 -52 -3 l-49 -36 7 38 c4 21 15 67 26
101 11 35 17 66 14 69 -3 3 -34 -23 -68 -58z"/>
<path d="M2265 3781 c11 -100 47 -141 148 -172 25 -7 20 1 -37 61 -36 39 -77
91 -91 117 l-26 48 6 -54z"/>
<path d="M2360 3269 c15 -29 38 -52 67 -68 27 -14 93 -15 93 -1 0 6 -4 10 -9
10 -15 0 -93 37 -130 61 l-34 23 13 -25z"/>
<path d="M2302 2931 c-23 -4 -60 -6 -82 -4 -22 2 -40 2 -40 -1 0 -10 54 -34
80 -36 45 -4 59 0 87 25 30 26 27 27 -45 16z"/>
<path d="M2874 2909 c-45 -16 -96 -25 -159 -29 -15 0 -11 -5 15 -16 52 -23
130 -14 174 20 20 15 36 31 36 37 0 11 -3 11 -66 -12z"/>
<path d="M2574 2700 c-11 -4 -45 -8 -75 -8 -77 -1 -78 -1 -39 -22 42 -23 72
-25 109 -6 35 19 60 46 40 45 -8 0 -23 -4 -35 -9z"/>
<path d="M3575 2584 c-16 -8 -43 -28 -60 -43 -16 -16 -44 -36 -61 -45 -18 -8
-45 -33 -62 -54 -17 -21 -43 -44 -59 -52 -15 -8 -49 -29 -75 -48 -41 -29 -53
-32 -80 -26 -129 30 -223 33 -327 9 -41 -10 -98 -31 -127 -49 -58 -34 -374
-354 -374 -379 0 -41 224 -249 259 -240 9 2 45 51 81 109 75 121 87 129 282
188 116 35 176 46 295 55 6 1 35 21 64 46 29 24 84 66 123 92 39 26 98 74 131
107 33 34 78 77 100 97 22 20 48 47 59 60 10 13 30 37 45 52 24 27 25 29 9 41
-17 12 -17 14 3 32 l21 19 -22 17 c-25 20 -62 23 -91 7 -16 -8 -29 -7 -54 5
-41 20 -43 20 -80 0z"/>
<path d="M2786 2399 c-33 -11 -81 -20 -107 -22 -26 -1 -51 -5 -54 -9 -10 -10
95 -31 130 -25 36 6 91 41 99 64 6 16 6 16 -68 -8z"/>
</g>
</svg>
