<svg xmlns="http://www.w3.org/2000/svg" width="42" height="50"><path fill-rule="evenodd" fill="#005092" d="M36.789 50c-2.871 0-5.207-2.358-5.207-5.258 0-2.645 1.944-4.841 4.465-5.205v-4.801c0-2.677-2.154-4.856-4.803-4.856-2.642 0-4.709 2.134-4.709 4.856v8.926c0 3.462-2.788 6.278-6.216 6.278-3.427 0-6.215-2.816-6.215-6.278v-8.509a3.038 3.038 0 0 1-2.29-2.478l-.018.015c-.492-.5-12.07-12.364-11.777-21.302.132-4.113 1.768-6.336 3.115-7.476 1.208-1.023 2.52-1.466 3.412-1.577C6.858.991 8.056-.013 9.481-.013c1.661 0 3.012 1.365 3.012 3.042 0 1.678-1.351 3.043-3.012 3.043-1.41 0-2.597-.982-2.925-2.304-.601.105-1.573.437-2.514 1.234-1.618 1.368-2.521 3.593-2.614 6.433-.231 7.08 8.072 16.68 10.631 19.466a3.011 3.011 0 0 1 2.727-1.752c1.205 0 2.247.716 2.728 1.749 2.562-2.788 10.859-12.385 10.628-19.463-.092-2.841-.996-5.065-2.612-6.433-.942-.797-1.913-1.129-2.516-1.234-.327 1.322-1.513 2.304-2.92 2.304-1.662 0-3.013-1.365-3.013-3.043 0-1.677 1.351-3.042 3.013-3.042 1.423 0 2.619 1.004 2.931 2.348.892.111 2.204.554 3.413 1.577 1.346 1.14 2.981 3.363 3.114 7.476.293 8.938-11.285 20.802-11.778 21.302l-.014-.013a3.04 3.04 0 0 1-2.243 2.464v8.521c0 2.677 2.154 4.855 4.802 4.855 2.649 0 4.803-2.178 4.803-4.855v-8.926c0-3.521 2.69-6.279 6.122-6.279 3.428 0 6.216 2.817 6.216 6.279v4.791c2.553.333 4.535 2.544 4.535 5.215 0 2.9-2.335 5.258-5.206 5.258zM9.481 4.649c.882 0 1.599-.727 1.599-1.62A1.61 1.61 0 0 0 9.481 1.41c-.883 0-1.601.726-1.601 1.619s.718 1.62 1.601 1.62zM20.094 1.41c-.883 0-1.6.726-1.6 1.619s.717 1.62 1.6 1.62c.88 0 1.597-.727 1.597-1.62a1.61 1.61 0 0 0-1.597-1.619zm-3.707 30.779a1.61 1.61 0 0 0-1.601-1.617 1.61 1.61 0 0 0-1.599 1.617 1.61 1.61 0 0 0 1.599 1.619c.883 0 1.601-.726 1.601-1.619zm20.402 8.717c-2.092 0-3.794 1.721-3.794 3.836 0 2.114 1.702 3.835 3.794 3.835s3.793-1.721 3.793-3.835c0-2.115-1.701-3.836-3.793-3.836zm-.003 6.398c-1.398 0-2.537-1.15-2.537-2.562 0-1.413 1.139-2.562 2.537-2.562 1.401 0 2.54 1.149 2.54 2.562 0 1.412-1.139 2.562-2.54 2.562zm0-3.701c-.62 0-1.124.511-1.124 1.139s.504 1.139 1.124 1.139c.622 0 1.127-.511 1.127-1.139s-.505-1.139-1.127-1.139z"/></svg>