<svg xmlns="http://www.w3.org/2000/svg" width="54" height="42"><path fill-rule="evenodd" fill="#005092" d="M51.083 27.766V41.99H40.491V27.766h-2.907V14.173c0-2.399 1.926-4.352 4.294-4.352h7.819c2.368 0 4.294 1.953 4.294 4.352v13.593h-2.908zm-5.97-16.346l.888.767.889-.767h-1.777zm7.302 2.753c0-1.519-1.219-2.753-2.718-2.753h-.581L46 14.112l-3.108-2.692h-1.014c-1.499 0-2.719 1.234-2.719 2.753v11.995h1.332v-1.705h1.577v15.93h2.931V28.232h1.575v12.161h2.932v-15.93h1.577v1.705h1.332V14.173zm-2.617 3.565h-1.286v-1.252h-1.234v-1.301h1.234v-1.251h1.286v1.251h1.233v1.301h-1.233v1.252zM45.787 9.14c-2.486 0-4.507-2.049-4.507-4.566 0-2.519 2.021-4.568 4.507-4.568 2.485 0 4.508 2.049 4.508 4.568 0 2.517-2.023 4.566-4.508 4.566zm0-7.536c-1.616 0-2.931 1.332-2.931 2.97 0 1.637 1.315 2.969 2.931 2.969s2.931-1.332 2.931-2.969c0-1.638-1.315-2.97-2.931-2.97zM32.288 41.99H21.696V27.766h-2.907V14.173c0-2.399 1.926-4.352 4.293-4.352h7.82c2.367 0 4.294 1.953 4.294 4.352v13.593h-2.908V41.99zm-5.969-30.57l.887.767.89-.767h-1.777zm7.301 14.748V14.173c0-1.519-1.219-2.753-2.718-2.753h-.581l-3.116 2.692-3.108-2.692h-1.015c-1.498 0-2.718 1.234-2.718 2.753v11.995h1.332v-1.705h1.577v15.93h2.93V28.232h1.576v12.161h2.932v-15.93h1.577v1.705h1.332zm-2.618-8.43h-1.285v-1.252h-1.234v-1.301h1.234v-1.251h1.285v1.251h1.234v1.301h-1.234v1.252zm-4.01-8.598c-2.486 0-4.507-2.049-4.507-4.566 0-2.519 2.021-4.568 4.507-4.568 2.485 0 4.508 2.049 4.508 4.568 0 2.517-2.023 4.566-4.508 4.566zm0-7.536c-1.616 0-2.931 1.332-2.931 2.97 0 1.637 1.315 2.969 2.931 2.969s2.931-1.332 2.931-2.969c0-1.638-1.315-2.97-2.931-2.97zM13.493 41.99H2.901V27.766H-.007V14.173c0-2.399 1.927-4.352 4.294-4.352h7.82c2.367 0 4.293 1.953 4.293 4.352v13.593h-2.907V41.99zm-5.97-30.57l.887.767.89-.767H7.523zm7.302 14.748V14.173c0-1.519-1.219-2.753-2.718-2.753h-.582L8.41 14.112 5.301 11.42H4.287c-1.498 0-2.718 1.234-2.718 2.753v11.995h1.332v-1.705h1.576v15.93h2.931V28.232h1.576v12.161h2.932v-15.93h1.577v1.705h1.332zm-2.618-8.43h-1.285v-1.252H9.687v-1.301h1.235v-1.251h1.285v1.251h1.234v1.301h-1.234v1.252zM8.197 9.14c-2.486 0-4.507-2.049-4.507-4.566C3.69 2.055 5.711.006 8.197.006c2.485 0 4.507 2.049 4.507 4.568 0 2.517-2.022 4.566-4.507 4.566zm0-7.536c-1.616 0-2.931 1.332-2.931 2.97 0 1.637 1.315 2.969 2.931 2.969s2.931-1.332 2.931-2.969c0-1.638-1.315-2.97-2.931-2.97z"/></svg>